<?xml version="1.0" encoding="utf-8"?><svg width="150" height="151" fill="none" xmlns="http://www.w3.org/2000/svg" viewBox="0 0 150 151"><path d="M124.451 26.262l8.641 6.032c2.688 1.876 2.102 6.01-1.001 7.067l-9.782 3.329c-3.206 1.091-6.233-2.049-5.025-5.214l1.027-2.691a3.99 3.99 0 00.233-1.92l-.352-2.83c-.427-3.437 3.419-5.756 6.259-3.773z" fill="#FFBB24"/><path opacity=".2" d="M115.787 33.54c-59.381-4.98-102.692 37.887-67.049 67.05 12.643 10.344 28.35 9.194 37.928-.383 10.727-10.727 12.26-28.35 1.532-39.077-23.752-23.753-81.602 1.149-39.843 88.114" stroke="#F15060" stroke-width="2" stroke-linecap="round" stroke-dasharray="5.2 5.2"/></svg>