<?xml version="1.0" encoding="utf-8"?><svg viewBox="0 0 150 151" xmlns="http://www.w3.org/2000/svg" xmlns:xlink="http://www.w3.org/1999/xlink"><style>:root>svg{display:none}:root>svg:target{display:block}</style><svg fill="none" viewBox="0 0 16 16" id="arrow-left" xmlns="http://www.w3.org/2000/svg"><path d="M2.667 8h10.666M6 11.333S2.667 8.878 2.667 8C2.667 7.122 6 4.667 6 4.667" stroke="#9D097C" stroke-width="1.5" stroke-linecap="round" stroke-linejoin="round"/></svg><svg fill="none" viewBox="0 0 16 16" id="arrow-right" xmlns="http://www.w3.org/2000/svg"><path d="M13.333 8H2.667M10 11.333S13.333 8.878 13.334 8c0-.878-3.334-3.333-3.334-3.333" stroke="#9D097C" stroke-width="1.5" stroke-linecap="round" stroke-linejoin="round"/></svg><svg fill="none" viewBox="0 0 32 32" id="close" xmlns="http://www.w3.org/2000/svg"><path fill="#fff" d="M22.038 6.482l2.593 2.593L9.075 24.63l-2.593-2.593z"/><path fill="#fff" d="M24.631 22.038l-2.593 2.593L6.482 9.075l2.593-2.593z"/></svg><svg fill="none" viewBox="0 0 20 21" id="icon-check" xmlns="http://www.w3.org/2000/svg"><path d="M10 2.558a8.333 8.333 0 100 16.667 8.333 8.333 0 000-16.667z" fill="#90ECF4"/><path fill-rule="evenodd" clip-rule="evenodd" d="M13.09 8.635a.833.833 0 010 1.179l-3.334 3.333a.833.833 0 01-1.179 0l-1.666-1.666a.833.833 0 111.178-1.179l1.078 1.078 2.744-2.745a.833.833 0 011.178 0z" fill="#444BD3"/></svg><svg fill="none" viewBox="0 0 88 36" id="logo" xmlns="http://www.w3.org/2000/svg"><path d="M33.498 7.875V26.9h6.794c5.568 0 8.843-3.533 8.843-9.558s-3.288-9.466-8.843-9.466h-6.794zm3.326 2.874h3.12c3.712 0 5.8 2.347 5.8 6.605 0 4.337-2.062 6.671-5.8 6.671h-3.12V10.749zM51.545 26.9h3.21V7.874h-3.21V26.9zM66.537 22.72c-.348 1.16-1.482 1.925-2.978 1.925-2.1 0-3.441-1.503-3.441-3.744v-.198h9.551v-1.068c0-4.245-2.423-7-6.303-7-3.944 0-6.445 2.913-6.445 7.33 0 4.456 2.475 7.21 6.574 7.21 3.236 0 5.633-1.818 6.046-4.455h-3.004zm-3.158-7.541c1.843 0 3.08 1.384 3.145 3.362h-6.38c.128-1.951 1.43-3.362 3.235-3.362zM76.85 21.89l2.836 5.009h3.506l-4.344-7.066 4.395-6.909h-3.519l-2.72 4.905h-.064l-2.759-4.905h-3.61l4.37 7-4.408 6.975h3.416l2.836-5.01h.065z" fill="#121127"/><path fill-rule="evenodd" clip-rule="evenodd" d="M13.209 31.5c7.286-.005 13.19-6.047 13.19-13.5S20.496 4.505 13.21 4.5c5.162 2.206 8.79 7.42 8.79 13.5s-3.628 11.293-8.79 13.5z" fill="#121127" fill-opacity=".32"/><path d="M0 9.3c0-2.65 2.074-4.8 4.632-4.8H7.7c7.29 0 13.2 6.045 13.2 13.5 0 7.456-5.91 13.5-13.2 13.5H4.632C2.074 31.5 0 29.351 0 26.7V9.3z" fill="#121127"/></svg><svg fill="none" viewBox="0 0 24 24" id="logo-facebook" xmlns="http://www.w3.org/2000/svg"><path d="M24 12a12 12 0 10-13.875 11.855V15.47H7.079v-3.468h3.046V9.357c0-3.008 1.792-4.669 4.532-4.669.9.013 1.798.09 2.687.234v2.954H15.83a1.734 1.734 0 00-1.955 1.875V12h3.328l-.532 3.468h-2.796v8.386A12.001 12.001 0 0024 12.001z" fill="#121127" fill-opacity=".32"/></svg><svg fill="none" viewBox="0 0 24 24" id="logo-github" xmlns="http://www.w3.org/2000/svg"><path fill-rule="evenodd" clip-rule="evenodd" d="M12 .3C5.4.3 0 5.7 0 12.3c0 5.325 3.45 9.825 8.175 11.4.6.075.825-.225.825-.6v-2.025c-3.375.75-4.05-1.575-4.05-1.575-.525-1.35-1.35-1.725-1.35-1.725-1.125-.75.075-.75.075-.75 1.2.075 1.875 1.2 1.875 1.2 1.05 1.8 2.775 1.275 3.525.975a2.59 2.59 0 01.75-1.575c-2.7-.3-5.475-1.35-5.475-5.925 0-1.275.45-2.4 1.2-3.225-.15-.3-.525-1.5.15-3.15 0 0 .975-.3 3.3 1.2.975-.3 1.95-.375 3-.375s2.025.15 3 .375c2.325-1.575 3.3-1.275 3.3-1.275.675 1.65.225 2.85.15 3.15.75.825 1.2 1.875 1.2 3.225 0 4.575-2.775 5.625-5.475 5.925.45.375.825 1.125.825 2.25v3.3c0 .3.225.675.825.6A12.015 12.015 0 0024 12.3c0-6.6-5.4-12-12-12z" fill="#121127" fill-opacity=".32"/></svg><svg fill="none" viewBox="0 0 24 24" id="logo-instagram" xmlns="http://www.w3.org/2000/svg"><path d="M12 2.775c3 0 3.36.011 4.546.065a6.22 6.22 0 012.09.388c.488.18.93.468 1.292.841.374.363.661.805.842 1.293.248.67.38 1.376.387 2.09.055 1.188.068 1.548.068 4.548s-.011 3.36-.065 4.546a6.221 6.221 0 01-.388 2.09 3.728 3.728 0 01-2.134 2.134 6.22 6.22 0 01-2.09.387c-1.186.055-1.542.066-4.546.066-3.004 0-3.36-.011-4.546-.066a6.22 6.22 0 01-2.089-.387 3.483 3.483 0 01-1.293-.842 3.483 3.483 0 01-.841-1.293 6.22 6.22 0 01-.388-2.09c-.057-1.185-.07-1.541-.07-4.545s.011-3.36.065-4.546a6.22 6.22 0 01.388-2.09c.181-.488.47-.93.844-1.292a3.483 3.483 0 011.293-.842 6.22 6.22 0 012.09-.388C8.64 2.788 9 2.775 12 2.775zM12 .75c-3.056 0-3.439.013-4.638.068a8.283 8.283 0 00-2.732.525c-.75.282-1.43.724-1.991 1.296A5.523 5.523 0 001.34 4.63a8.283 8.283 0 00-.525 2.732C.763 8.562.75 8.944.75 12s.013 3.439.068 4.638c.02.934.197 1.857.525 2.731.282.75.726 1.43 1.298 1.992a5.522 5.522 0 001.992 1.299 8.279 8.279 0 002.731.525c1.2.055 1.583.067 4.638.067 3.056 0 3.439-.012 4.638-.067a8.28 8.28 0 002.732-.525 5.763 5.763 0 003.29-3.29 8.284 8.284 0 00.525-2.732c.055-1.2.067-1.583.067-4.638 0-3.056-.012-3.439-.067-4.638a8.284 8.284 0 00-.525-2.732 5.524 5.524 0 00-1.298-1.991 5.524 5.524 0 00-1.992-1.299A8.283 8.283 0 0016.64.815C15.44.763 15.055.75 12 .75z" fill="#121127" fill-opacity=".32"/><path d="M12 6.225a5.775 5.775 0 100 11.55 5.775 5.775 0 000-11.55zm0 9.525a3.75 3.75 0 110-7.5 3.75 3.75 0 010 7.5zM18.005 7.345a1.35 1.35 0 100-2.7 1.35 1.35 0 000 2.7z" fill="#121127" fill-opacity=".32"/></svg><svg fill="none" viewBox="0 0 24 24" id="logo-twitter" xmlns="http://www.w3.org/2000/svg"><path d="M24 4.575c-.9.375-1.8.675-2.85.75 1.05-.6 1.8-1.575 2.175-2.7-.975.6-2.025.975-3.15 1.2C19.275 2.85 18 2.25 16.65 2.25c-2.7 0-4.95 2.175-4.95 4.95 0 .375.075.75.15 1.125C7.725 8.1 4.125 6.15 1.65 3.15a4.72 4.72 0 00-.675 2.475c0 1.725.9 3.225 2.175 4.125a4.582 4.582 0 01-2.25-.6v.075c0 2.4 1.725 4.35 3.975 4.8-.45.075-.825.15-1.275.15-.3 0-.6 0-.9-.075.6 1.95 2.475 3.375 4.575 3.45-1.65 1.35-3.825 2.1-6.15 2.1-.375 0-.825 0-1.2-.075 2.25 1.35 4.875 2.175 7.65 2.175 9.075 0 14.025-7.5 14.025-14.025v-.6c.9-.75 1.725-1.575 2.4-2.55z" fill="#121127" fill-opacity=".32"/></svg><svg fill="none" viewBox="0 0 90 36" id="logo_violet" xmlns="http://www.w3.org/2000/svg"><path d="M34.26 7.875v19.024h6.947c5.696 0 9.044-3.533 9.044-9.558s-3.361-9.466-9.044-9.466H34.26zm3.401 2.874h3.19c3.797 0 5.933 2.347 5.933 6.605 0 4.337-2.11 6.67-5.933 6.67h-3.19V10.75zM52.717 26.899h3.282V7.875h-3.282v19.024zM68.05 22.72c-.357 1.16-1.517 1.925-3.046 1.925-2.149 0-3.52-1.503-3.52-3.744v-.198h9.769v-1.068c0-4.245-2.479-7-6.447-7-4.034 0-6.592 2.913-6.592 7.33 0 4.456 2.532 7.21 6.724 7.21 3.31 0 5.761-1.818 6.183-4.455H68.05zm-3.23-7.541c1.885 0 3.15 1.384 3.216 3.362H61.51c.132-1.951 1.464-3.362 3.31-3.362zM78.596 21.89l2.9 5.009h3.587l-4.443-7.067 4.495-6.908h-3.599l-2.782 4.905h-.066l-2.82-4.905h-3.692l4.469 7-4.509 6.975h3.494l2.9-5.01h.066z" fill="#444BD3"/><path fill-rule="evenodd" clip-rule="evenodd" d="M13.509 31.5c7.451-.005 13.49-6.047 13.49-13.5S20.962 4.505 13.51 4.5c5.28 2.206 8.99 7.42 8.99 13.5s-3.71 11.293-8.99 13.5z" fill="#444BD3" fill-opacity=".32"/><path d="M0 9.3c0-2.65 2.12-4.8 4.737-4.8h3.138c7.456 0 13.5 6.045 13.5 13.5 0 7.456-6.044 13.5-13.5 13.5H4.737C2.12 31.5 0 29.351 0 26.7V9.3z" fill="#444BD3"/></svg><svg fill="none" viewBox="0 0 24 24" id="play" xmlns="http://www.w3.org/2000/svg"><path fill-rule="evenodd" clip-rule="evenodd" d="M19.576 9.414c1.972 1.16 1.972 4.012 0 5.172L8.521 21.089C6.521 22.265 4 20.823 4 18.503V5.497c0-2.32 2.521-3.762 4.521-2.586l11.055 6.503z" fill="#121127"/></svg><svg fill="none" viewBox="0 0 150 151" id="send" xmlns="http://www.w3.org/2000/svg"><path d="M124.451 26.262l8.641 6.032c2.688 1.876 2.102 6.01-1.001 7.067l-9.782 3.329c-3.206 1.091-6.233-2.049-5.025-5.214l1.027-2.691a3.99 3.99 0 00.233-1.92l-.352-2.83c-.427-3.437 3.419-5.756 6.259-3.773z" fill="#FFBB24"/><path opacity=".2" d="M115.787 33.54c-59.381-4.98-102.692 37.887-67.049 67.05 12.643 10.344 28.35 9.194 37.928-.383 10.727-10.727 12.26-28.35 1.532-39.077-23.752-23.753-81.602 1.149-39.843 88.114" stroke="#F15060" stroke-width="2" stroke-linecap="round" stroke-dasharray="5.2 5.2"/></svg></svg>